%TF.GenerationSoftware,KiCad,Pcbnew,(6.0.1)*%
%TF.CreationDate,2022-12-06T17:09:41-08:00*%
%TF.ProjectId,White Light PCB KICAD,57686974-6520-44c6-9967-687420504342,rev?*%
%TF.SameCoordinates,Original*%
%TF.FileFunction,Paste,Top*%
%TF.FilePolarity,Positive*%
%FSLAX46Y46*%
G04 Gerber Fmt 4.6, Leading zero omitted, Abs format (unit mm)*
G04 Created by KiCad (PCBNEW (6.0.1)) date 2022-12-06 17:09:41*
%MOMM*%
%LPD*%
G01*
G04 APERTURE LIST*
G04 Aperture macros list*
%AMRoundRect*
0 Rectangle with rounded corners*
0 $1 Rounding radius*
0 $2 $3 $4 $5 $6 $7 $8 $9 X,Y pos of 4 corners*
0 Add a 4 corners polygon primitive as box body*
4,1,4,$2,$3,$4,$5,$6,$7,$8,$9,$2,$3,0*
0 Add four circle primitives for the rounded corners*
1,1,$1+$1,$2,$3*
1,1,$1+$1,$4,$5*
1,1,$1+$1,$6,$7*
1,1,$1+$1,$8,$9*
0 Add four rect primitives between the rounded corners*
20,1,$1+$1,$2,$3,$4,$5,0*
20,1,$1+$1,$4,$5,$6,$7,0*
20,1,$1+$1,$6,$7,$8,$9,0*
20,1,$1+$1,$8,$9,$2,$3,0*%
G04 Aperture macros list end*
%ADD10RoundRect,0.250000X0.400000X0.625000X-0.400000X0.625000X-0.400000X-0.625000X0.400000X-0.625000X0*%
%ADD11R,0.370000X0.450000*%
%ADD12R,0.370000X0.600000*%
%ADD13R,1.670000X0.900000*%
%ADD14R,3.500000X0.550000*%
%ADD15R,2.800000X0.700000*%
G04 APERTURE END LIST*
D10*
%TO.C,R3*%
X300000000Y-58420000D03*
X296900000Y-58420000D03*
%TD*%
D11*
%TO.C,IC3*%
X297800000Y-64325000D03*
D12*
X298450000Y-64250000D03*
D11*
X299100000Y-64325000D03*
X299100000Y-62675000D03*
X298450000Y-62675000D03*
X297800000Y-62675000D03*
D13*
X298450000Y-63500000D03*
%TD*%
D14*
%TO.C,LED1*%
X88900000Y-70975000D03*
X88900000Y-68725000D03*
D15*
X88900000Y-70350000D03*
X88900000Y-69350000D03*
%TD*%
D14*
%TO.C,LED12*%
X298450000Y-70975000D03*
X298450000Y-68725000D03*
D15*
X298450000Y-70350000D03*
X298450000Y-69350000D03*
%TD*%
D10*
%TO.C,R2*%
X223800000Y-58420000D03*
X220700000Y-58420000D03*
%TD*%
D15*
%TO.C,LED3*%
X127000000Y-69350000D03*
X127000000Y-70350000D03*
D14*
X127000000Y-68725000D03*
X127000000Y-70975000D03*
%TD*%
D15*
%TO.C,LED5*%
X165100000Y-69350000D03*
X165100000Y-70350000D03*
D14*
X165100000Y-68725000D03*
X165100000Y-70975000D03*
%TD*%
D11*
%TO.C,IC1*%
X145400000Y-64960000D03*
D12*
X146050000Y-64885000D03*
D11*
X146700000Y-64960000D03*
X146700000Y-63310000D03*
X146050000Y-63310000D03*
X145400000Y-63310000D03*
D13*
X146050000Y-64135000D03*
%TD*%
D14*
%TO.C,LED10*%
X260350000Y-70975000D03*
X260350000Y-68725000D03*
D15*
X260350000Y-70350000D03*
X260350000Y-69350000D03*
%TD*%
%TO.C,LED4*%
X146050000Y-69350000D03*
X146050000Y-70350000D03*
D14*
X146050000Y-68725000D03*
X146050000Y-70975000D03*
%TD*%
%TO.C,LED8*%
X222250000Y-70975000D03*
X222250000Y-68725000D03*
D15*
X222250000Y-70350000D03*
X222250000Y-69350000D03*
%TD*%
D14*
%TO.C,LED11*%
X279400000Y-70975000D03*
X279400000Y-68725000D03*
D15*
X279400000Y-70350000D03*
X279400000Y-69350000D03*
%TD*%
D14*
%TO.C,LED7*%
X203200000Y-70975000D03*
X203200000Y-68725000D03*
D15*
X203200000Y-70350000D03*
X203200000Y-69350000D03*
%TD*%
%TO.C,LED6*%
X184150000Y-69350000D03*
X184150000Y-70350000D03*
D14*
X184150000Y-68725000D03*
X184150000Y-70975000D03*
%TD*%
%TO.C,LED9*%
X241300000Y-70975000D03*
X241300000Y-68725000D03*
D15*
X241300000Y-70350000D03*
X241300000Y-69350000D03*
%TD*%
D10*
%TO.C,R1*%
X144500000Y-59055000D03*
X147600000Y-59055000D03*
%TD*%
D15*
%TO.C,LED2*%
X107950000Y-69350000D03*
X107950000Y-70350000D03*
D14*
X107950000Y-68725000D03*
X107950000Y-70975000D03*
%TD*%
D11*
%TO.C,IC2*%
X221600000Y-64325000D03*
D12*
X222250000Y-64250000D03*
D11*
X222900000Y-64325000D03*
X222900000Y-62675000D03*
X222250000Y-62675000D03*
X221600000Y-62675000D03*
D13*
X222250000Y-63500000D03*
%TD*%
M02*
