%TF.GenerationSoftware,KiCad,Pcbnew,(6.0.1)*%
%TF.CreationDate,2022-12-06T17:09:41-08:00*%
%TF.ProjectId,White Light PCB KICAD,57686974-6520-44c6-9967-687420504342,rev?*%
%TF.SameCoordinates,Original*%
%TF.FileFunction,Legend,Top*%
%TF.FilePolarity,Positive*%
%FSLAX46Y46*%
G04 Gerber Fmt 4.6, Leading zero omitted, Abs format (unit mm)*
G04 Created by KiCad (PCBNEW (6.0.1)) date 2022-12-06 17:09:41*
%MOMM*%
%LPD*%
G01*
G04 APERTURE LIST*
G04 Aperture macros list*
%AMRoundRect*
0 Rectangle with rounded corners*
0 $1 Rounding radius*
0 $2 $3 $4 $5 $6 $7 $8 $9 X,Y pos of 4 corners*
0 Add a 4 corners polygon primitive as box body*
4,1,4,$2,$3,$4,$5,$6,$7,$8,$9,$2,$3,0*
0 Add four circle primitives for the rounded corners*
1,1,$1+$1,$2,$3*
1,1,$1+$1,$4,$5*
1,1,$1+$1,$6,$7*
1,1,$1+$1,$8,$9*
0 Add four rect primitives between the rounded corners*
20,1,$1+$1,$2,$3,$4,$5,0*
20,1,$1+$1,$4,$5,$6,$7,0*
20,1,$1+$1,$6,$7,$8,$9,0*
20,1,$1+$1,$8,$9,$2,$3,0*%
%AMFreePoly0*
4,1,6,0.500000,-0.750000,-0.650000,-0.750000,-0.150000,0.000000,-0.650000,0.750000,0.500000,0.750000,0.500000,-0.750000,0.500000,-0.750000,$1*%
%AMFreePoly1*
4,1,6,1.000000,0.000000,0.500000,-0.750000,-0.500000,-0.750000,-0.500000,0.750000,0.500000,0.750000,1.000000,0.000000,1.000000,0.000000,$1*%
G04 Aperture macros list end*
%ADD10C,0.150000*%
%ADD11C,0.254000*%
%ADD12C,0.120000*%
%ADD13C,0.100000*%
%ADD14RoundRect,0.250000X0.400000X0.625000X-0.400000X0.625000X-0.400000X-0.625000X0.400000X-0.625000X0*%
%ADD15R,0.370000X0.450000*%
%ADD16R,0.370000X0.600000*%
%ADD17R,1.670000X0.900000*%
%ADD18R,3.500000X0.550000*%
%ADD19R,2.800000X0.700000*%
%ADD20FreePoly0,90.000000*%
%ADD21FreePoly1,90.000000*%
%ADD22R,2.600000X2.600000*%
%ADD23C,2.600000*%
G04 APERTURE END LIST*
D10*
%TO.C,R3*%
X302093333Y-58872380D02*
X301760000Y-58396190D01*
X301521904Y-58872380D02*
X301521904Y-57872380D01*
X301902857Y-57872380D01*
X301998095Y-57920000D01*
X302045714Y-57967619D01*
X302093333Y-58062857D01*
X302093333Y-58205714D01*
X302045714Y-58300952D01*
X301998095Y-58348571D01*
X301902857Y-58396190D01*
X301521904Y-58396190D01*
X302426666Y-57872380D02*
X303045714Y-57872380D01*
X302712380Y-58253333D01*
X302855238Y-58253333D01*
X302950476Y-58300952D01*
X302998095Y-58348571D01*
X303045714Y-58443809D01*
X303045714Y-58681904D01*
X302998095Y-58777142D01*
X302950476Y-58824761D01*
X302855238Y-58872380D01*
X302569523Y-58872380D01*
X302474285Y-58824761D01*
X302426666Y-58777142D01*
D11*
%TO.C,IC3*%
X297210238Y-61534523D02*
X297210238Y-60264523D01*
X298540714Y-61413571D02*
X298480238Y-61474047D01*
X298298809Y-61534523D01*
X298177857Y-61534523D01*
X297996428Y-61474047D01*
X297875476Y-61353095D01*
X297815000Y-61232142D01*
X297754523Y-60990238D01*
X297754523Y-60808809D01*
X297815000Y-60566904D01*
X297875476Y-60445952D01*
X297996428Y-60325000D01*
X298177857Y-60264523D01*
X298298809Y-60264523D01*
X298480238Y-60325000D01*
X298540714Y-60385476D01*
X298964047Y-60264523D02*
X299750238Y-60264523D01*
X299326904Y-60748333D01*
X299508333Y-60748333D01*
X299629285Y-60808809D01*
X299689761Y-60869285D01*
X299750238Y-60990238D01*
X299750238Y-61292619D01*
X299689761Y-61413571D01*
X299629285Y-61474047D01*
X299508333Y-61534523D01*
X299145476Y-61534523D01*
X299024523Y-61474047D01*
X298964047Y-61413571D01*
%TO.C,LED1*%
X87478809Y-68019523D02*
X86874047Y-68019523D01*
X86874047Y-66749523D01*
X87902142Y-67354285D02*
X88325476Y-67354285D01*
X88506904Y-68019523D02*
X87902142Y-68019523D01*
X87902142Y-66749523D01*
X88506904Y-66749523D01*
X89051190Y-68019523D02*
X89051190Y-66749523D01*
X89353571Y-66749523D01*
X89535000Y-66810000D01*
X89655952Y-66930952D01*
X89716428Y-67051904D01*
X89776904Y-67293809D01*
X89776904Y-67475238D01*
X89716428Y-67717142D01*
X89655952Y-67838095D01*
X89535000Y-67959047D01*
X89353571Y-68019523D01*
X89051190Y-68019523D01*
X90986428Y-68019523D02*
X90260714Y-68019523D01*
X90623571Y-68019523D02*
X90623571Y-66749523D01*
X90502619Y-66930952D01*
X90381666Y-67051904D01*
X90260714Y-67112380D01*
%TO.C,LED12*%
X296424047Y-67769523D02*
X295819285Y-67769523D01*
X295819285Y-66499523D01*
X296847380Y-67104285D02*
X297270714Y-67104285D01*
X297452142Y-67769523D02*
X296847380Y-67769523D01*
X296847380Y-66499523D01*
X297452142Y-66499523D01*
X297996428Y-67769523D02*
X297996428Y-66499523D01*
X298298809Y-66499523D01*
X298480238Y-66560000D01*
X298601190Y-66680952D01*
X298661666Y-66801904D01*
X298722142Y-67043809D01*
X298722142Y-67225238D01*
X298661666Y-67467142D01*
X298601190Y-67588095D01*
X298480238Y-67709047D01*
X298298809Y-67769523D01*
X297996428Y-67769523D01*
X299931666Y-67769523D02*
X299205952Y-67769523D01*
X299568809Y-67769523D02*
X299568809Y-66499523D01*
X299447857Y-66680952D01*
X299326904Y-66801904D01*
X299205952Y-66862380D01*
X300415476Y-66620476D02*
X300475952Y-66560000D01*
X300596904Y-66499523D01*
X300899285Y-66499523D01*
X301020238Y-66560000D01*
X301080714Y-66620476D01*
X301141190Y-66741428D01*
X301141190Y-66862380D01*
X301080714Y-67043809D01*
X300355000Y-67769523D01*
X301141190Y-67769523D01*
D10*
%TO.C,R2*%
X225893333Y-58872380D02*
X225560000Y-58396190D01*
X225321904Y-58872380D02*
X225321904Y-57872380D01*
X225702857Y-57872380D01*
X225798095Y-57920000D01*
X225845714Y-57967619D01*
X225893333Y-58062857D01*
X225893333Y-58205714D01*
X225845714Y-58300952D01*
X225798095Y-58348571D01*
X225702857Y-58396190D01*
X225321904Y-58396190D01*
X226274285Y-57967619D02*
X226321904Y-57920000D01*
X226417142Y-57872380D01*
X226655238Y-57872380D01*
X226750476Y-57920000D01*
X226798095Y-57967619D01*
X226845714Y-58062857D01*
X226845714Y-58158095D01*
X226798095Y-58300952D01*
X226226666Y-58872380D01*
X226845714Y-58872380D01*
D11*
%TO.C,LED3*%
X125578809Y-67884523D02*
X124974047Y-67884523D01*
X124974047Y-66614523D01*
X126002142Y-67219285D02*
X126425476Y-67219285D01*
X126606904Y-67884523D02*
X126002142Y-67884523D01*
X126002142Y-66614523D01*
X126606904Y-66614523D01*
X127151190Y-67884523D02*
X127151190Y-66614523D01*
X127453571Y-66614523D01*
X127635000Y-66675000D01*
X127755952Y-66795952D01*
X127816428Y-66916904D01*
X127876904Y-67158809D01*
X127876904Y-67340238D01*
X127816428Y-67582142D01*
X127755952Y-67703095D01*
X127635000Y-67824047D01*
X127453571Y-67884523D01*
X127151190Y-67884523D01*
X128300238Y-66614523D02*
X129086428Y-66614523D01*
X128663095Y-67098333D01*
X128844523Y-67098333D01*
X128965476Y-67158809D01*
X129025952Y-67219285D01*
X129086428Y-67340238D01*
X129086428Y-67642619D01*
X129025952Y-67763571D01*
X128965476Y-67824047D01*
X128844523Y-67884523D01*
X128481666Y-67884523D01*
X128360714Y-67824047D01*
X128300238Y-67763571D01*
%TO.C,LED5*%
X163678809Y-68019523D02*
X163074047Y-68019523D01*
X163074047Y-66749523D01*
X164102142Y-67354285D02*
X164525476Y-67354285D01*
X164706904Y-68019523D02*
X164102142Y-68019523D01*
X164102142Y-66749523D01*
X164706904Y-66749523D01*
X165251190Y-68019523D02*
X165251190Y-66749523D01*
X165553571Y-66749523D01*
X165735000Y-66810000D01*
X165855952Y-66930952D01*
X165916428Y-67051904D01*
X165976904Y-67293809D01*
X165976904Y-67475238D01*
X165916428Y-67717142D01*
X165855952Y-67838095D01*
X165735000Y-67959047D01*
X165553571Y-68019523D01*
X165251190Y-68019523D01*
X167125952Y-66749523D02*
X166521190Y-66749523D01*
X166460714Y-67354285D01*
X166521190Y-67293809D01*
X166642142Y-67233333D01*
X166944523Y-67233333D01*
X167065476Y-67293809D01*
X167125952Y-67354285D01*
X167186428Y-67475238D01*
X167186428Y-67777619D01*
X167125952Y-67898571D01*
X167065476Y-67959047D01*
X166944523Y-68019523D01*
X166642142Y-68019523D01*
X166521190Y-67959047D01*
X166460714Y-67898571D01*
D10*
%TO.C,JP3*%
X274121666Y-71842380D02*
X274121666Y-72556666D01*
X274074047Y-72699523D01*
X273978809Y-72794761D01*
X273835952Y-72842380D01*
X273740714Y-72842380D01*
X274597857Y-72842380D02*
X274597857Y-71842380D01*
X274978809Y-71842380D01*
X275074047Y-71890000D01*
X275121666Y-71937619D01*
X275169285Y-72032857D01*
X275169285Y-72175714D01*
X275121666Y-72270952D01*
X275074047Y-72318571D01*
X274978809Y-72366190D01*
X274597857Y-72366190D01*
X275502619Y-71842380D02*
X276121666Y-71842380D01*
X275788333Y-72223333D01*
X275931190Y-72223333D01*
X276026428Y-72270952D01*
X276074047Y-72318571D01*
X276121666Y-72413809D01*
X276121666Y-72651904D01*
X276074047Y-72747142D01*
X276026428Y-72794761D01*
X275931190Y-72842380D01*
X275645476Y-72842380D01*
X275550238Y-72794761D01*
X275502619Y-72747142D01*
%TO.C,JP5*%
X197921666Y-71842380D02*
X197921666Y-72556666D01*
X197874047Y-72699523D01*
X197778809Y-72794761D01*
X197635952Y-72842380D01*
X197540714Y-72842380D01*
X198397857Y-72842380D02*
X198397857Y-71842380D01*
X198778809Y-71842380D01*
X198874047Y-71890000D01*
X198921666Y-71937619D01*
X198969285Y-72032857D01*
X198969285Y-72175714D01*
X198921666Y-72270952D01*
X198874047Y-72318571D01*
X198778809Y-72366190D01*
X198397857Y-72366190D01*
X199874047Y-71842380D02*
X199397857Y-71842380D01*
X199350238Y-72318571D01*
X199397857Y-72270952D01*
X199493095Y-72223333D01*
X199731190Y-72223333D01*
X199826428Y-72270952D01*
X199874047Y-72318571D01*
X199921666Y-72413809D01*
X199921666Y-72651904D01*
X199874047Y-72747142D01*
X199826428Y-72794761D01*
X199731190Y-72842380D01*
X199493095Y-72842380D01*
X199397857Y-72794761D01*
X199350238Y-72747142D01*
D11*
%TO.C,IC1*%
X144810238Y-62144523D02*
X144810238Y-60874523D01*
X146140714Y-62023571D02*
X146080238Y-62084047D01*
X145898809Y-62144523D01*
X145777857Y-62144523D01*
X145596428Y-62084047D01*
X145475476Y-61963095D01*
X145415000Y-61842142D01*
X145354523Y-61600238D01*
X145354523Y-61418809D01*
X145415000Y-61176904D01*
X145475476Y-61055952D01*
X145596428Y-60935000D01*
X145777857Y-60874523D01*
X145898809Y-60874523D01*
X146080238Y-60935000D01*
X146140714Y-60995476D01*
X147350238Y-62144523D02*
X146624523Y-62144523D01*
X146987380Y-62144523D02*
X146987380Y-60874523D01*
X146866428Y-61055952D01*
X146745476Y-61176904D01*
X146624523Y-61237380D01*
D10*
%TO.C,JP1*%
X121721666Y-71842380D02*
X121721666Y-72556666D01*
X121674047Y-72699523D01*
X121578809Y-72794761D01*
X121435952Y-72842380D01*
X121340714Y-72842380D01*
X122197857Y-72842380D02*
X122197857Y-71842380D01*
X122578809Y-71842380D01*
X122674047Y-71890000D01*
X122721666Y-71937619D01*
X122769285Y-72032857D01*
X122769285Y-72175714D01*
X122721666Y-72270952D01*
X122674047Y-72318571D01*
X122578809Y-72366190D01*
X122197857Y-72366190D01*
X123721666Y-72842380D02*
X123150238Y-72842380D01*
X123435952Y-72842380D02*
X123435952Y-71842380D01*
X123340714Y-71985238D01*
X123245476Y-72080476D01*
X123150238Y-72128095D01*
%TO.C,J2*%
X327827380Y-51423333D02*
X328541666Y-51423333D01*
X328684523Y-51470952D01*
X328779761Y-51566190D01*
X328827380Y-51709047D01*
X328827380Y-51804285D01*
X327922619Y-50994761D02*
X327875000Y-50947142D01*
X327827380Y-50851904D01*
X327827380Y-50613809D01*
X327875000Y-50518571D01*
X327922619Y-50470952D01*
X328017857Y-50423333D01*
X328113095Y-50423333D01*
X328255952Y-50470952D01*
X328827380Y-51042380D01*
X328827380Y-50423333D01*
D11*
%TO.C,LED10*%
X258324047Y-67769523D02*
X257719285Y-67769523D01*
X257719285Y-66499523D01*
X258747380Y-67104285D02*
X259170714Y-67104285D01*
X259352142Y-67769523D02*
X258747380Y-67769523D01*
X258747380Y-66499523D01*
X259352142Y-66499523D01*
X259896428Y-67769523D02*
X259896428Y-66499523D01*
X260198809Y-66499523D01*
X260380238Y-66560000D01*
X260501190Y-66680952D01*
X260561666Y-66801904D01*
X260622142Y-67043809D01*
X260622142Y-67225238D01*
X260561666Y-67467142D01*
X260501190Y-67588095D01*
X260380238Y-67709047D01*
X260198809Y-67769523D01*
X259896428Y-67769523D01*
X261831666Y-67769523D02*
X261105952Y-67769523D01*
X261468809Y-67769523D02*
X261468809Y-66499523D01*
X261347857Y-66680952D01*
X261226904Y-66801904D01*
X261105952Y-66862380D01*
X262617857Y-66499523D02*
X262738809Y-66499523D01*
X262859761Y-66560000D01*
X262920238Y-66620476D01*
X262980714Y-66741428D01*
X263041190Y-66983333D01*
X263041190Y-67285714D01*
X262980714Y-67527619D01*
X262920238Y-67648571D01*
X262859761Y-67709047D01*
X262738809Y-67769523D01*
X262617857Y-67769523D01*
X262496904Y-67709047D01*
X262436428Y-67648571D01*
X262375952Y-67527619D01*
X262315476Y-67285714D01*
X262315476Y-66983333D01*
X262375952Y-66741428D01*
X262436428Y-66620476D01*
X262496904Y-66560000D01*
X262617857Y-66499523D01*
%TO.C,LED4*%
X144628809Y-68019523D02*
X144024047Y-68019523D01*
X144024047Y-66749523D01*
X145052142Y-67354285D02*
X145475476Y-67354285D01*
X145656904Y-68019523D02*
X145052142Y-68019523D01*
X145052142Y-66749523D01*
X145656904Y-66749523D01*
X146201190Y-68019523D02*
X146201190Y-66749523D01*
X146503571Y-66749523D01*
X146685000Y-66810000D01*
X146805952Y-66930952D01*
X146866428Y-67051904D01*
X146926904Y-67293809D01*
X146926904Y-67475238D01*
X146866428Y-67717142D01*
X146805952Y-67838095D01*
X146685000Y-67959047D01*
X146503571Y-68019523D01*
X146201190Y-68019523D01*
X148015476Y-67172857D02*
X148015476Y-68019523D01*
X147713095Y-66689047D02*
X147410714Y-67596190D01*
X148196904Y-67596190D01*
D10*
%TO.C,JP2*%
X140771666Y-71842380D02*
X140771666Y-72556666D01*
X140724047Y-72699523D01*
X140628809Y-72794761D01*
X140485952Y-72842380D01*
X140390714Y-72842380D01*
X141247857Y-72842380D02*
X141247857Y-71842380D01*
X141628809Y-71842380D01*
X141724047Y-71890000D01*
X141771666Y-71937619D01*
X141819285Y-72032857D01*
X141819285Y-72175714D01*
X141771666Y-72270952D01*
X141724047Y-72318571D01*
X141628809Y-72366190D01*
X141247857Y-72366190D01*
X142200238Y-71937619D02*
X142247857Y-71890000D01*
X142343095Y-71842380D01*
X142581190Y-71842380D01*
X142676428Y-71890000D01*
X142724047Y-71937619D01*
X142771666Y-72032857D01*
X142771666Y-72128095D01*
X142724047Y-72270952D01*
X142152619Y-72842380D01*
X142771666Y-72842380D01*
D11*
%TO.C,LED8*%
X220828809Y-67769523D02*
X220224047Y-67769523D01*
X220224047Y-66499523D01*
X221252142Y-67104285D02*
X221675476Y-67104285D01*
X221856904Y-67769523D02*
X221252142Y-67769523D01*
X221252142Y-66499523D01*
X221856904Y-66499523D01*
X222401190Y-67769523D02*
X222401190Y-66499523D01*
X222703571Y-66499523D01*
X222885000Y-66560000D01*
X223005952Y-66680952D01*
X223066428Y-66801904D01*
X223126904Y-67043809D01*
X223126904Y-67225238D01*
X223066428Y-67467142D01*
X223005952Y-67588095D01*
X222885000Y-67709047D01*
X222703571Y-67769523D01*
X222401190Y-67769523D01*
X223852619Y-67043809D02*
X223731666Y-66983333D01*
X223671190Y-66922857D01*
X223610714Y-66801904D01*
X223610714Y-66741428D01*
X223671190Y-66620476D01*
X223731666Y-66560000D01*
X223852619Y-66499523D01*
X224094523Y-66499523D01*
X224215476Y-66560000D01*
X224275952Y-66620476D01*
X224336428Y-66741428D01*
X224336428Y-66801904D01*
X224275952Y-66922857D01*
X224215476Y-66983333D01*
X224094523Y-67043809D01*
X223852619Y-67043809D01*
X223731666Y-67104285D01*
X223671190Y-67164761D01*
X223610714Y-67285714D01*
X223610714Y-67527619D01*
X223671190Y-67648571D01*
X223731666Y-67709047D01*
X223852619Y-67769523D01*
X224094523Y-67769523D01*
X224215476Y-67709047D01*
X224275952Y-67648571D01*
X224336428Y-67527619D01*
X224336428Y-67285714D01*
X224275952Y-67164761D01*
X224215476Y-67104285D01*
X224094523Y-67043809D01*
%TO.C,LED11*%
X277374047Y-67884523D02*
X276769285Y-67884523D01*
X276769285Y-66614523D01*
X277797380Y-67219285D02*
X278220714Y-67219285D01*
X278402142Y-67884523D02*
X277797380Y-67884523D01*
X277797380Y-66614523D01*
X278402142Y-66614523D01*
X278946428Y-67884523D02*
X278946428Y-66614523D01*
X279248809Y-66614523D01*
X279430238Y-66675000D01*
X279551190Y-66795952D01*
X279611666Y-66916904D01*
X279672142Y-67158809D01*
X279672142Y-67340238D01*
X279611666Y-67582142D01*
X279551190Y-67703095D01*
X279430238Y-67824047D01*
X279248809Y-67884523D01*
X278946428Y-67884523D01*
X280881666Y-67884523D02*
X280155952Y-67884523D01*
X280518809Y-67884523D02*
X280518809Y-66614523D01*
X280397857Y-66795952D01*
X280276904Y-66916904D01*
X280155952Y-66977380D01*
X282091190Y-67884523D02*
X281365476Y-67884523D01*
X281728333Y-67884523D02*
X281728333Y-66614523D01*
X281607380Y-66795952D01*
X281486428Y-66916904D01*
X281365476Y-66977380D01*
%TO.C,LED7*%
X201778809Y-67884523D02*
X201174047Y-67884523D01*
X201174047Y-66614523D01*
X202202142Y-67219285D02*
X202625476Y-67219285D01*
X202806904Y-67884523D02*
X202202142Y-67884523D01*
X202202142Y-66614523D01*
X202806904Y-66614523D01*
X203351190Y-67884523D02*
X203351190Y-66614523D01*
X203653571Y-66614523D01*
X203835000Y-66675000D01*
X203955952Y-66795952D01*
X204016428Y-66916904D01*
X204076904Y-67158809D01*
X204076904Y-67340238D01*
X204016428Y-67582142D01*
X203955952Y-67703095D01*
X203835000Y-67824047D01*
X203653571Y-67884523D01*
X203351190Y-67884523D01*
X204500238Y-66614523D02*
X205346904Y-66614523D01*
X204802619Y-67884523D01*
D10*
%TO.C,J1*%
X46522380Y-51423333D02*
X47236666Y-51423333D01*
X47379523Y-51470952D01*
X47474761Y-51566190D01*
X47522380Y-51709047D01*
X47522380Y-51804285D01*
X47522380Y-50423333D02*
X47522380Y-50994761D01*
X47522380Y-50709047D02*
X46522380Y-50709047D01*
X46665238Y-50804285D01*
X46760476Y-50899523D01*
X46808095Y-50994761D01*
%TO.C,JP4*%
X293171666Y-71842380D02*
X293171666Y-72556666D01*
X293124047Y-72699523D01*
X293028809Y-72794761D01*
X292885952Y-72842380D01*
X292790714Y-72842380D01*
X293647857Y-72842380D02*
X293647857Y-71842380D01*
X294028809Y-71842380D01*
X294124047Y-71890000D01*
X294171666Y-71937619D01*
X294219285Y-72032857D01*
X294219285Y-72175714D01*
X294171666Y-72270952D01*
X294124047Y-72318571D01*
X294028809Y-72366190D01*
X293647857Y-72366190D01*
X295076428Y-72175714D02*
X295076428Y-72842380D01*
X294838333Y-71794761D02*
X294600238Y-72509047D01*
X295219285Y-72509047D01*
D11*
%TO.C,LED6*%
X182728809Y-67769523D02*
X182124047Y-67769523D01*
X182124047Y-66499523D01*
X183152142Y-67104285D02*
X183575476Y-67104285D01*
X183756904Y-67769523D02*
X183152142Y-67769523D01*
X183152142Y-66499523D01*
X183756904Y-66499523D01*
X184301190Y-67769523D02*
X184301190Y-66499523D01*
X184603571Y-66499523D01*
X184785000Y-66560000D01*
X184905952Y-66680952D01*
X184966428Y-66801904D01*
X185026904Y-67043809D01*
X185026904Y-67225238D01*
X184966428Y-67467142D01*
X184905952Y-67588095D01*
X184785000Y-67709047D01*
X184603571Y-67769523D01*
X184301190Y-67769523D01*
X186115476Y-66499523D02*
X185873571Y-66499523D01*
X185752619Y-66560000D01*
X185692142Y-66620476D01*
X185571190Y-66801904D01*
X185510714Y-67043809D01*
X185510714Y-67527619D01*
X185571190Y-67648571D01*
X185631666Y-67709047D01*
X185752619Y-67769523D01*
X185994523Y-67769523D01*
X186115476Y-67709047D01*
X186175952Y-67648571D01*
X186236428Y-67527619D01*
X186236428Y-67225238D01*
X186175952Y-67104285D01*
X186115476Y-67043809D01*
X185994523Y-66983333D01*
X185752619Y-66983333D01*
X185631666Y-67043809D01*
X185571190Y-67104285D01*
X185510714Y-67225238D01*
%TO.C,LED9*%
X239878809Y-67884523D02*
X239274047Y-67884523D01*
X239274047Y-66614523D01*
X240302142Y-67219285D02*
X240725476Y-67219285D01*
X240906904Y-67884523D02*
X240302142Y-67884523D01*
X240302142Y-66614523D01*
X240906904Y-66614523D01*
X241451190Y-67884523D02*
X241451190Y-66614523D01*
X241753571Y-66614523D01*
X241935000Y-66675000D01*
X242055952Y-66795952D01*
X242116428Y-66916904D01*
X242176904Y-67158809D01*
X242176904Y-67340238D01*
X242116428Y-67582142D01*
X242055952Y-67703095D01*
X241935000Y-67824047D01*
X241753571Y-67884523D01*
X241451190Y-67884523D01*
X242781666Y-67884523D02*
X243023571Y-67884523D01*
X243144523Y-67824047D01*
X243205000Y-67763571D01*
X243325952Y-67582142D01*
X243386428Y-67340238D01*
X243386428Y-66856428D01*
X243325952Y-66735476D01*
X243265476Y-66675000D01*
X243144523Y-66614523D01*
X242902619Y-66614523D01*
X242781666Y-66675000D01*
X242721190Y-66735476D01*
X242660714Y-66856428D01*
X242660714Y-67158809D01*
X242721190Y-67279761D01*
X242781666Y-67340238D01*
X242902619Y-67400714D01*
X243144523Y-67400714D01*
X243265476Y-67340238D01*
X243325952Y-67279761D01*
X243386428Y-67158809D01*
D10*
%TO.C,JP6*%
X216971666Y-71842380D02*
X216971666Y-72556666D01*
X216924047Y-72699523D01*
X216828809Y-72794761D01*
X216685952Y-72842380D01*
X216590714Y-72842380D01*
X217447857Y-72842380D02*
X217447857Y-71842380D01*
X217828809Y-71842380D01*
X217924047Y-71890000D01*
X217971666Y-71937619D01*
X218019285Y-72032857D01*
X218019285Y-72175714D01*
X217971666Y-72270952D01*
X217924047Y-72318571D01*
X217828809Y-72366190D01*
X217447857Y-72366190D01*
X218876428Y-71842380D02*
X218685952Y-71842380D01*
X218590714Y-71890000D01*
X218543095Y-71937619D01*
X218447857Y-72080476D01*
X218400238Y-72270952D01*
X218400238Y-72651904D01*
X218447857Y-72747142D01*
X218495476Y-72794761D01*
X218590714Y-72842380D01*
X218781190Y-72842380D01*
X218876428Y-72794761D01*
X218924047Y-72747142D01*
X218971666Y-72651904D01*
X218971666Y-72413809D01*
X218924047Y-72318571D01*
X218876428Y-72270952D01*
X218781190Y-72223333D01*
X218590714Y-72223333D01*
X218495476Y-72270952D01*
X218447857Y-72318571D01*
X218400238Y-72413809D01*
%TO.C,R1*%
X149693333Y-59507380D02*
X149360000Y-59031190D01*
X149121904Y-59507380D02*
X149121904Y-58507380D01*
X149502857Y-58507380D01*
X149598095Y-58555000D01*
X149645714Y-58602619D01*
X149693333Y-58697857D01*
X149693333Y-58840714D01*
X149645714Y-58935952D01*
X149598095Y-58983571D01*
X149502857Y-59031190D01*
X149121904Y-59031190D01*
X150645714Y-59507380D02*
X150074285Y-59507380D01*
X150360000Y-59507380D02*
X150360000Y-58507380D01*
X150264761Y-58650238D01*
X150169523Y-58745476D01*
X150074285Y-58793095D01*
D11*
%TO.C,LED2*%
X106528809Y-67884523D02*
X105924047Y-67884523D01*
X105924047Y-66614523D01*
X106952142Y-67219285D02*
X107375476Y-67219285D01*
X107556904Y-67884523D02*
X106952142Y-67884523D01*
X106952142Y-66614523D01*
X107556904Y-66614523D01*
X108101190Y-67884523D02*
X108101190Y-66614523D01*
X108403571Y-66614523D01*
X108585000Y-66675000D01*
X108705952Y-66795952D01*
X108766428Y-66916904D01*
X108826904Y-67158809D01*
X108826904Y-67340238D01*
X108766428Y-67582142D01*
X108705952Y-67703095D01*
X108585000Y-67824047D01*
X108403571Y-67884523D01*
X108101190Y-67884523D01*
X109310714Y-66735476D02*
X109371190Y-66675000D01*
X109492142Y-66614523D01*
X109794523Y-66614523D01*
X109915476Y-66675000D01*
X109975952Y-66735476D01*
X110036428Y-66856428D01*
X110036428Y-66977380D01*
X109975952Y-67158809D01*
X109250238Y-67884523D01*
X110036428Y-67884523D01*
%TO.C,IC2*%
X221010238Y-61534523D02*
X221010238Y-60264523D01*
X222340714Y-61413571D02*
X222280238Y-61474047D01*
X222098809Y-61534523D01*
X221977857Y-61534523D01*
X221796428Y-61474047D01*
X221675476Y-61353095D01*
X221615000Y-61232142D01*
X221554523Y-60990238D01*
X221554523Y-60808809D01*
X221615000Y-60566904D01*
X221675476Y-60445952D01*
X221796428Y-60325000D01*
X221977857Y-60264523D01*
X222098809Y-60264523D01*
X222280238Y-60325000D01*
X222340714Y-60385476D01*
X222824523Y-60385476D02*
X222885000Y-60325000D01*
X223005952Y-60264523D01*
X223308333Y-60264523D01*
X223429285Y-60325000D01*
X223489761Y-60385476D01*
X223550238Y-60506428D01*
X223550238Y-60627380D01*
X223489761Y-60808809D01*
X222764047Y-61534523D01*
X223550238Y-61534523D01*
D12*
%TO.C,R3*%
X299177064Y-59330000D02*
X297722936Y-59330000D01*
X299177064Y-57510000D02*
X297722936Y-57510000D01*
D13*
%TO.C,IC3*%
X297450000Y-62500000D02*
X297450000Y-64500000D01*
X299450000Y-62500000D02*
X299450000Y-64500000D01*
X297750000Y-64900000D02*
X297750000Y-64900000D01*
X297850000Y-64900000D02*
X297850000Y-64900000D01*
X297750000Y-64900000D02*
G75*
G03*
X297850000Y-64900000I50000J0D01*
G01*
X297850000Y-64900000D02*
G75*
G03*
X297750000Y-64900000I-50000J0D01*
G01*
%TO.C,LED1*%
X88800000Y-71850000D02*
X88800000Y-71850000D01*
X88900000Y-71850000D02*
X88900000Y-71850000D01*
X88800000Y-71850000D02*
G75*
G03*
X88900000Y-71850000I50000J0D01*
G01*
X88900000Y-71850000D02*
G75*
G03*
X88800000Y-71850000I-50000J0D01*
G01*
%TO.C,LED12*%
X298450000Y-71850000D02*
X298450000Y-71850000D01*
X298350000Y-71850000D02*
X298350000Y-71850000D01*
X298350000Y-71850000D02*
G75*
G03*
X298450000Y-71850000I50000J0D01*
G01*
X298450000Y-71850000D02*
G75*
G03*
X298350000Y-71850000I-50000J0D01*
G01*
D12*
%TO.C,R2*%
X222977064Y-57510000D02*
X221522936Y-57510000D01*
X222977064Y-59330000D02*
X221522936Y-59330000D01*
D13*
%TO.C,LED3*%
X126900000Y-71850000D02*
G75*
G03*
X127000000Y-71850000I50000J0D01*
G01*
X127000000Y-71850000D02*
G75*
G03*
X126900000Y-71850000I-50000J0D01*
G01*
X127000000Y-71850000D02*
X127000000Y-71850000D01*
X126900000Y-71850000D02*
X126900000Y-71850000D01*
%TO.C,LED5*%
X165100000Y-71850000D02*
G75*
G03*
X165000000Y-71850000I-50000J0D01*
G01*
X165000000Y-71850000D02*
G75*
G03*
X165100000Y-71850000I50000J0D01*
G01*
X165100000Y-71850000D02*
X165100000Y-71850000D01*
X165000000Y-71850000D02*
X165000000Y-71850000D01*
D12*
%TO.C,JP3*%
X275955000Y-68450000D02*
X275955000Y-71250000D01*
X273955000Y-71250000D02*
X273955000Y-68450000D01*
X273955000Y-68450000D02*
X275955000Y-68450000D01*
X275955000Y-71250000D02*
X273955000Y-71250000D01*
%TO.C,JP5*%
X199755000Y-71250000D02*
X197755000Y-71250000D01*
X199755000Y-68450000D02*
X199755000Y-71250000D01*
X197755000Y-68450000D02*
X199755000Y-68450000D01*
X197755000Y-71250000D02*
X197755000Y-68450000D01*
D13*
%TO.C,IC1*%
X147050000Y-63135000D02*
X147050000Y-65135000D01*
X145450000Y-65535000D02*
X145450000Y-65535000D01*
X145350000Y-65535000D02*
X145350000Y-65535000D01*
X145050000Y-63135000D02*
X145050000Y-65135000D01*
X145450000Y-65535000D02*
G75*
G03*
X145350000Y-65535000I-50000J0D01*
G01*
X145350000Y-65535000D02*
G75*
G03*
X145450000Y-65535000I50000J0D01*
G01*
D12*
%TO.C,JP1*%
X121555000Y-71250000D02*
X121555000Y-68450000D01*
X121555000Y-68450000D02*
X123555000Y-68450000D01*
X123555000Y-71250000D02*
X121555000Y-71250000D01*
X123555000Y-68450000D02*
X123555000Y-71250000D01*
%TO.C,J2*%
X329525000Y-45740000D02*
X338725000Y-45740000D01*
X338725000Y-45740000D02*
X338725000Y-60340000D01*
X329525000Y-54740000D02*
X329525000Y-45740000D01*
X329525000Y-60340000D02*
X329525000Y-58340000D01*
X338965000Y-58840000D02*
X338965000Y-60580000D01*
X332325000Y-60340000D02*
X329525000Y-60340000D01*
X338965000Y-60580000D02*
X337225000Y-60580000D01*
X338725000Y-60340000D02*
X335925000Y-60340000D01*
D13*
%TO.C,LED10*%
X260350000Y-71850000D02*
X260350000Y-71850000D01*
X260250000Y-71850000D02*
X260250000Y-71850000D01*
X260250000Y-71850000D02*
G75*
G03*
X260350000Y-71850000I50000J0D01*
G01*
X260350000Y-71850000D02*
G75*
G03*
X260250000Y-71850000I-50000J0D01*
G01*
%TO.C,LED4*%
X145950000Y-71850000D02*
G75*
G03*
X146050000Y-71850000I50000J0D01*
G01*
X146050000Y-71850000D02*
G75*
G03*
X145950000Y-71850000I-50000J0D01*
G01*
X146050000Y-71850000D02*
X146050000Y-71850000D01*
X145950000Y-71850000D02*
X145950000Y-71850000D01*
D12*
%TO.C,JP2*%
X140605000Y-71250000D02*
X140605000Y-68450000D01*
X142605000Y-71250000D02*
X140605000Y-71250000D01*
X140605000Y-68450000D02*
X142605000Y-68450000D01*
X142605000Y-68450000D02*
X142605000Y-71250000D01*
D13*
%TO.C,LED8*%
X222150000Y-71850000D02*
X222150000Y-71850000D01*
X222250000Y-71850000D02*
X222250000Y-71850000D01*
X222150000Y-71850000D02*
G75*
G03*
X222250000Y-71850000I50000J0D01*
G01*
X222250000Y-71850000D02*
G75*
G03*
X222150000Y-71850000I-50000J0D01*
G01*
%TO.C,LED11*%
X279400000Y-71850000D02*
X279400000Y-71850000D01*
X279300000Y-71850000D02*
X279300000Y-71850000D01*
X279300000Y-71850000D02*
G75*
G03*
X279400000Y-71850000I50000J0D01*
G01*
X279400000Y-71850000D02*
G75*
G03*
X279300000Y-71850000I-50000J0D01*
G01*
%TO.C,LED7*%
X203200000Y-71850000D02*
X203200000Y-71850000D01*
X203100000Y-71850000D02*
X203100000Y-71850000D01*
X203200000Y-71850000D02*
G75*
G03*
X203100000Y-71850000I-50000J0D01*
G01*
X203100000Y-71850000D02*
G75*
G03*
X203200000Y-71850000I50000J0D01*
G01*
D12*
%TO.C,J1*%
X48220000Y-45740000D02*
X57420000Y-45740000D01*
X57420000Y-60340000D02*
X54620000Y-60340000D01*
X57660000Y-60580000D02*
X55920000Y-60580000D01*
X48220000Y-54740000D02*
X48220000Y-45740000D01*
X57660000Y-58840000D02*
X57660000Y-60580000D01*
X57420000Y-45740000D02*
X57420000Y-60340000D01*
X48220000Y-60340000D02*
X48220000Y-58340000D01*
X51020000Y-60340000D02*
X48220000Y-60340000D01*
%TO.C,JP4*%
X295005000Y-71250000D02*
X293005000Y-71250000D01*
X293005000Y-71250000D02*
X293005000Y-68450000D01*
X295005000Y-68450000D02*
X295005000Y-71250000D01*
X293005000Y-68450000D02*
X295005000Y-68450000D01*
D13*
%TO.C,LED6*%
X184050000Y-71850000D02*
G75*
G03*
X184150000Y-71850000I50000J0D01*
G01*
X184150000Y-71850000D02*
G75*
G03*
X184050000Y-71850000I-50000J0D01*
G01*
X184050000Y-71850000D02*
X184050000Y-71850000D01*
X184150000Y-71850000D02*
X184150000Y-71850000D01*
%TO.C,LED9*%
X241300000Y-71850000D02*
X241300000Y-71850000D01*
X241200000Y-71850000D02*
X241200000Y-71850000D01*
X241200000Y-71850000D02*
G75*
G03*
X241300000Y-71850000I50000J0D01*
G01*
X241300000Y-71850000D02*
G75*
G03*
X241200000Y-71850000I-50000J0D01*
G01*
D12*
%TO.C,JP6*%
X216805000Y-68450000D02*
X218805000Y-68450000D01*
X218805000Y-71250000D02*
X216805000Y-71250000D01*
X218805000Y-68450000D02*
X218805000Y-71250000D01*
X216805000Y-71250000D02*
X216805000Y-68450000D01*
%TO.C,R1*%
X146777064Y-58145000D02*
X145322936Y-58145000D01*
X146777064Y-59965000D02*
X145322936Y-59965000D01*
D13*
%TO.C,LED2*%
X107850000Y-71850000D02*
G75*
G03*
X107950000Y-71850000I50000J0D01*
G01*
X107950000Y-71850000D02*
G75*
G03*
X107850000Y-71850000I-50000J0D01*
G01*
X107850000Y-71850000D02*
X107850000Y-71850000D01*
X107950000Y-71850000D02*
X107950000Y-71850000D01*
%TO.C,IC2*%
X221650000Y-64900000D02*
X221650000Y-64900000D01*
X223250000Y-62500000D02*
X223250000Y-64500000D01*
X221550000Y-64900000D02*
X221550000Y-64900000D01*
X221250000Y-62500000D02*
X221250000Y-64500000D01*
X221650000Y-64900000D02*
G75*
G03*
X221550000Y-64900000I-50000J0D01*
G01*
X221550000Y-64900000D02*
G75*
G03*
X221650000Y-64900000I50000J0D01*
G01*
%TD*%
%LPC*%
D14*
%TO.C,R3*%
X300000000Y-58420000D03*
X296900000Y-58420000D03*
%TD*%
D15*
%TO.C,IC3*%
X297800000Y-64325000D03*
D16*
X298450000Y-64250000D03*
D15*
X299100000Y-64325000D03*
X299100000Y-62675000D03*
X298450000Y-62675000D03*
X297800000Y-62675000D03*
D17*
X298450000Y-63500000D03*
%TD*%
D18*
%TO.C,LED1*%
X88900000Y-70975000D03*
X88900000Y-68725000D03*
D19*
X88900000Y-70350000D03*
X88900000Y-69350000D03*
%TD*%
D18*
%TO.C,LED12*%
X298450000Y-70975000D03*
X298450000Y-68725000D03*
D19*
X298450000Y-70350000D03*
X298450000Y-69350000D03*
%TD*%
D14*
%TO.C,R2*%
X223800000Y-58420000D03*
X220700000Y-58420000D03*
%TD*%
D19*
%TO.C,LED3*%
X127000000Y-69350000D03*
X127000000Y-70350000D03*
D18*
X127000000Y-68725000D03*
X127000000Y-70975000D03*
%TD*%
D19*
%TO.C,LED5*%
X165100000Y-69350000D03*
X165100000Y-70350000D03*
D18*
X165100000Y-68725000D03*
X165100000Y-70975000D03*
%TD*%
D20*
%TO.C,JP3*%
X274955000Y-69125000D03*
D21*
X274955000Y-70575000D03*
%TD*%
%TO.C,JP5*%
X198755000Y-70575000D03*
D20*
X198755000Y-69125000D03*
%TD*%
D15*
%TO.C,IC1*%
X145400000Y-64960000D03*
D16*
X146050000Y-64885000D03*
D15*
X146700000Y-64960000D03*
X146700000Y-63310000D03*
X146050000Y-63310000D03*
X145400000Y-63310000D03*
D17*
X146050000Y-64135000D03*
%TD*%
D20*
%TO.C,JP1*%
X122555000Y-69125000D03*
D21*
X122555000Y-70575000D03*
%TD*%
D22*
%TO.C,J2*%
X334125000Y-59540000D03*
D23*
X334125000Y-53540000D03*
X329425000Y-56540000D03*
%TD*%
D18*
%TO.C,LED10*%
X260350000Y-70975000D03*
X260350000Y-68725000D03*
D19*
X260350000Y-70350000D03*
X260350000Y-69350000D03*
%TD*%
%TO.C,LED4*%
X146050000Y-69350000D03*
X146050000Y-70350000D03*
D18*
X146050000Y-68725000D03*
X146050000Y-70975000D03*
%TD*%
D20*
%TO.C,JP2*%
X141605000Y-69125000D03*
D21*
X141605000Y-70575000D03*
%TD*%
D18*
%TO.C,LED8*%
X222250000Y-70975000D03*
X222250000Y-68725000D03*
D19*
X222250000Y-70350000D03*
X222250000Y-69350000D03*
%TD*%
D18*
%TO.C,LED11*%
X279400000Y-70975000D03*
X279400000Y-68725000D03*
D19*
X279400000Y-70350000D03*
X279400000Y-69350000D03*
%TD*%
D18*
%TO.C,LED7*%
X203200000Y-70975000D03*
X203200000Y-68725000D03*
D19*
X203200000Y-70350000D03*
X203200000Y-69350000D03*
%TD*%
D22*
%TO.C,J1*%
X52820000Y-59540000D03*
D23*
X52820000Y-53540000D03*
X48120000Y-56540000D03*
%TD*%
D20*
%TO.C,JP4*%
X294005000Y-69125000D03*
D21*
X294005000Y-70575000D03*
%TD*%
D19*
%TO.C,LED6*%
X184150000Y-69350000D03*
X184150000Y-70350000D03*
D18*
X184150000Y-68725000D03*
X184150000Y-70975000D03*
%TD*%
%TO.C,LED9*%
X241300000Y-70975000D03*
X241300000Y-68725000D03*
D19*
X241300000Y-70350000D03*
X241300000Y-69350000D03*
%TD*%
D21*
%TO.C,JP6*%
X217805000Y-70575000D03*
D20*
X217805000Y-69125000D03*
%TD*%
D14*
%TO.C,R1*%
X144500000Y-59055000D03*
X147600000Y-59055000D03*
%TD*%
D19*
%TO.C,LED2*%
X107950000Y-69350000D03*
X107950000Y-70350000D03*
D18*
X107950000Y-68725000D03*
X107950000Y-70975000D03*
%TD*%
D15*
%TO.C,IC2*%
X221600000Y-64325000D03*
D16*
X222250000Y-64250000D03*
D15*
X222900000Y-64325000D03*
X222900000Y-62675000D03*
X222250000Y-62675000D03*
X221600000Y-62675000D03*
D17*
X222250000Y-63500000D03*
%TD*%
M02*
